<svg viewBox="0 0 1707.8 537.8" xmlns="http://www.w3.org/2000/svg" width="100%">
<g transform="translate(-31.533564,561.947809) scale(0.100000,-0.100000)" fill="#f5f5f5" stroke="none">
<path d="M8581 5598 c-5 -13 -14 -73 -20 -135 -7 -71 -20 -141 -37 -192 -27
-78 -66 -142 -79 -130 -3 4 1 47 9 95 21 116 22 274 2 274 -15 0 -36 -49 -36
-82 0 -72 -101 -278 -167 -343 -18 -18 -33 -37 -33 -44 0 -7 21 -31 46 -54 88
-80 123 -198 69 -233 -34 -22 -89 -7 -130 36 -30 31 -36 65 -23 135 3 17 -3
20 -46 22 -60 3 -78 14 -169 109 -39 41 -92 88 -117 104 -64 41 -192 86 -286
100 -94 14 -415 5 -426 -13 -3 -6 2 -28 13 -48 20 -40 24 -65 11 -73 -4 -2
-32 2 -62 11 -43 11 -88 13 -205 8 -82 -3 -172 -7 -200 -8 l-50 -2 3 -41 c5
-65 -7 -69 -148 -50 -95 13 -137 14 -203 6 -90 -11 -220 -44 -252 -64 -61 -37
-357 -144 -435 -157 -103 -17 -202 -13 -252 9 -148 65 -121 232 37 232 28 0
35 4 35 19 0 31 -38 51 -99 51 -74 0 -131 -34 -160 -95 -59 -126 15 -264 168
-309 142 -42 337 -7 599 106 91 40 104 35 113 -47 4 -32 15 -69 26 -83 56 -77
187 -82 237 -10 9 13 16 43 16 71 0 40 -5 53 -29 78 -20 20 -39 29 -62 29
l-32 0 25 20 c37 28 99 39 224 40 180 0 271 -23 574 -145 232 -94 356 -117
502 -95 132 20 182 55 207 145 24 86 3 185 -51 243 -48 51 25 52 124 1 20 -10
56 -42 80 -70 96 -115 115 -133 163 -154 46 -21 51 -27 63 -70 25 -94 109
-143 225 -131 50 5 59 3 69 -14 24 -39 46 -25 53 34 12 94 96 146 149 93 31
-31 33 -56 7 -88 -18 -21 -22 -23 -42 -11 -18 12 -23 12 -30 0 -12 -19 -11
-31 5 -54 13 -17 28 -19 155 -20 136 -1 141 0 163 23 18 19 20 27 11 41 -6 9
-21 16 -34 15 -42 -3 -66 6 -72 28 -9 33 8 65 43 79 61 25 124 -29 139 -119 7
-41 23 -49 48 -24 15 15 34 18 104 18 76 0 90 3 126 27 41 27 83 95 83 134 0
14 13 24 49 37 36 13 61 31 93 69 103 123 150 163 216 182 80 25 94 14 52 -39
-42 -53 -62 -124 -50 -183 13 -68 28 -103 57 -134 30 -32 59 -42 163 -59 146
-23 254 0 552 117 255 100 308 114 459 121 152 7 224 -1 270 -29 29 -19 31
-22 14 -25 -70 -13 -97 -43 -97 -108 0 -54 14 -81 55 -105 99 -61 227 20 227
143 0 35 4 47 18 51 11 4 72 -15 145 -44 190 -77 308 -103 432 -98 75 4 113
11 153 28 61 27 122 90 141 148 26 79 -7 171 -78 219 -48 33 -139 32 -177 0
-35 -31 -26 -43 37 -49 63 -6 101 -34 113 -82 20 -76 -51 -151 -157 -165 -81
-11 -210 6 -312 41 -114 39 -275 103 -327 129 -57 29 -209 60 -303 62 -44 1
-118 -4 -165 -11 -78 -11 -86 -11 -103 6 -14 14 -16 24 -8 44 5 13 6 30 2 36
-7 11 -93 16 -306 17 -93 0 -133 -4 -177 -19 -32 -11 -61 -17 -65 -13 -4 4 6
31 22 61 44 82 43 83 -148 91 -190 8 -261 2 -372 -32 -124 -39 -186 -76 -277
-170 -94 -95 -123 -114 -182 -116 l-41 -2 3 -61 c3 -53 1 -64 -22 -92 -48 -56
-132 -66 -155 -16 -23 51 12 136 88 209 28 27 51 53 51 57 0 5 -9 16 -21 26
-62 51 -150 218 -174 330 -22 99 -26 112 -40 112 -22 0 -25 -134 -4 -249 10
-57 16 -108 13 -113 -10 -16 -35 14 -60 70 -34 78 -42 113 -59 257 -16 135
-27 163 -50 132 -32 -43 -26 -297 11 -468 15 -72 15 -78 -1 -113 -24 -51 -54
-68 -116 -68 -58 1 -88 21 -110 74 -11 26 -10 45 5 117 32 164 39 416 12 459
-11 19 -26 14 -35 -10z m-1122 -432 c10 -12 8 -17 -8 -25 -11 -6 -34 -31 -51
-56 -17 -25 -38 -45 -46 -45 -16 0 -51 51 -61 89 -9 35 19 51 93 51 41 0 65
-5 73 -14z m2662 4 c10 -6 19 -19 19 -28 0 -23 -51 -102 -66 -102 -6 0 -24 16
-38 35 -15 20 -39 47 -54 60 -23 22 -25 27 -12 35 20 13 126 13 151 0z m-1677
-159 c-9 -12 -24 15 -23 42 l0 32 13 -35 c7 -19 11 -37 10 -39z m562 13 c-12
-31 -22 -12 -12 22 9 28 12 31 14 14 2 -12 1 -28 -2 -36z m-2060 22 c3 -8 0
-32 -6 -55 -10 -37 -14 -41 -41 -41 -20 0 -40 10 -60 29 -33 34 -35 43 -13 65
20 21 112 22 120 2z m664 -1 c64 -33 95 -116 66 -177 -33 -70 -100 -98 -233
-98 -119 0 -243 31 -243 60 0 6 14 29 30 52 17 22 30 47 30 54 0 31 25 23 74
-24 82 -78 153 -100 216 -67 40 21 60 53 60 95 0 42 -36 84 -67 78 -15 -3 -17
-11 -15 -46 3 -38 2 -42 -19 -42 -54 0 -79 70 -39 110 24 24 97 27 140 5z
m2343 3 c28 -22 32 -73 8 -97 -29 -29 -57 -27 -63 3 -3 14 -1 29 5 35 13 13 0
31 -24 31 -48 0 -75 -74 -48 -133 13 -28 67 -57 107 -57 52 0 128 45 172 102
23 29 46 54 51 56 4 2 11 -9 14 -25 11 -48 26 -81 46 -99 27 -25 24 -38 -15
-56 -92 -44 -306 -51 -381 -12 -105 55 -112 183 -13 244 38 23 115 27 141 8z
m651 6 c10 -4 16 -18 16 -35 0 -32 -27 -55 -77 -65 -29 -6 -31 -4 -46 39 -11
33 -12 48 -4 56 12 12 85 15 111 5z m-3473 -64 c10 -6 19 -20 19 -30 0 -26
-20 -26 -27 0 -8 29 -30 24 -48 -10 -9 -16 -20 -30 -25 -30 -13 0 -40 30 -40
45 0 31 79 47 121 25z m3274 -2 c30 -14 32 -29 5 -53 -16 -14 -22 -15 -34 -5
-9 6 -18 20 -21 31 -8 25 -32 24 -40 -2 -7 -20 -26 -22 -32 -2 -12 35 68 56
122 31z m-4222 -179 c7 0 26 -2 42 -2 42 -3 49 -42 10 -57 -48 -18 -111 50
-77 84 4 4 8 1 10 -8 2 -9 9 -16 15 -17z m5092 -19 c-17 -52 -105 -56 -105 -5
0 24 4 26 33 25 51 -3 57 -1 57 18 1 16 1 16 11 -1 6 -9 7 -26 4 -37z"/>
<path d="M2205 4948 c-1535 -6 -1872 -12 -1889 -29 -7 -7 132 -15 519 -29 138
-5 1136 -10 2220 -10 2043 1 2005 0 2005 38 0 6 -10 18 -22 26 -25 18 164 18
-2833 4z"/>
<path d="M12373 4943 c-29 -20 -29 -29 0 -48 21 -13 254 -15 2123 -15 1154 0
2214 5 2354 10 431 16 551 23 543 31 -19 19 -904 29 -2888 33 -1890 4 -2112 3
-2132 -11z"/>
<path d="M8190 4228 c-22 -6 -254 -11 -619 -13 -474 -2 -586 -5 -597 -16 -26
-27 1 -41 92 -50 48 -5 98 -16 112 -25 55 -36 55 -33 57 -744 3 -722 -4 -1012
-25 -1078 -17 -54 -51 -82 -100 -82 -71 0 -101 -11 -98 -34 3 -24 13 -24 855
-41 l391 -8 30 29 c26 26 31 42 46 144 10 63 16 147 14 185 -3 63 -5 70 -25
73 -18 3 -24 -4 -33 -40 -34 -133 -75 -187 -162 -209 -69 -18 -357 -19 -414
-2 -53 17 -89 51 -105 99 -8 27 -14 145 -16 374 -5 335 -5 335 18 364 l22 28
201 -3 c179 -4 205 -6 235 -24 50 -30 71 -64 78 -128 6 -63 25 -89 48 -66 9 9
17 66 24 169 7 85 14 183 18 218 5 58 4 62 -14 62 -11 0 -26 -7 -34 -16 -34
-41 -67 -47 -308 -55 -249 -9 -265 -7 -281 37 -15 38 -13 617 2 649 6 14 23
28 36 32 39 9 392 -5 437 -18 52 -15 101 -67 109 -116 16 -92 17 -94 39 -91
27 4 32 29 47 208 18 211 20 195 -15 197 -16 1 -46 -3 -65 -9z"/>
<path d="M4450 4210 c-129 -5 -135 -6 -138 -27 -3 -24 5 -26 113 -37 64 -6
100 -22 122 -55 14 -21 19 -61 24 -216 10 -256 10 -960 0 -1280 -11 -354 -13
-360 -174 -380 -42 -6 -48 -9 -45 -28 l3 -22 415 -3 c228 -1 425 0 438 3 13 3
22 13 22 24 0 21 -14 24 -142 36 -77 7 -111 28 -127 78 -20 64 -31 257 -31
549 l0 299 25 24 24 25 486 0 486 0 26 -26 26 -26 -8 -384 c-9 -495 -16 -527
-114 -539 -104 -13 -111 -15 -111 -34 0 -11 7 -22 16 -25 20 -8 828 -8 848 0
9 3 16 14 16 24 0 19 -13 23 -140 36 -130 13 -138 33 -150 363 -11 297 -12
1059 -1 1303 6 142 11 182 25 203 20 31 72 55 118 55 57 0 79 10 76 34 -3 20
-10 21 -133 27 -142 7 -693 1 -707 -7 -4 -3 -8 -13 -8 -23 0 -21 35 -31 104
-31 56 -1 121 -32 139 -67 12 -23 17 -97 22 -348 7 -313 7 -321 -13 -345 l-20
-25 -497 0 -497 0 -20 25 c-19 24 -20 35 -15 335 3 170 8 322 12 337 11 41 51
76 96 82 21 3 57 9 79 12 30 4 40 10 40 24 0 10 -8 21 -17 24 -26 8 -535 13
-693 6z"/>
<path d="M8850 4213 c-113 -3 -140 -9 -140 -28 0 -21 27 -32 99 -38 74 -6 108
-26 134 -79 16 -33 17 -91 17 -849 0 -675 -3 -826 -15 -883 -19 -88 -43 -116
-100 -116 -76 0 -106 -10 -103 -34 3 -21 8 -21 298 -29 162 -4 458 -9 656 -10
409 -2 393 -5 415 77 30 112 48 317 29 346 -15 24 -43 -1 -55 -51 -29 -110
-91 -180 -179 -199 -137 -29 -410 -19 -485 18 -98 48 -103 97 -99 1002 3 614
5 699 19 730 27 59 49 71 138 79 88 7 115 21 91 46 -12 12 -69 15 -320 17
-168 2 -348 2 -400 1z"/>
<path d="M10500 4210 c-99 -5 -105 -6 -108 -27 -3 -23 -2 -24 110 -38 66 -8
93 -39 107 -120 8 -45 11 -302 10 -827 -1 -854 -5 -922 -59 -956 -11 -7 -50
-16 -86 -21 -77 -11 -96 -23 -72 -47 14 -15 62 -16 428 -16 363 0 414 2 428
16 26 26 2 37 -95 47 -109 11 -139 23 -160 63 -25 46 -36 481 -30 1176 5 612
6 619 54 662 12 11 44 21 81 24 34 4 70 13 80 20 15 11 15 14 2 28 -13 13 -58
16 -300 18 -157 2 -332 1 -390 -2z"/>
<path d="M11523 4212 c-74 -2 -104 -7 -113 -17 -20 -24 4 -42 66 -49 139 -16
217 -87 368 -337 55 -90 162 -267 238 -392 76 -126 138 -239 138 -251 0 -26
-535 -785 -601 -853 -55 -57 -96 -78 -186 -93 -60 -10 -73 -15 -73 -30 0 -10
4 -21 9 -24 5 -3 151 -7 325 -8 277 -1 319 0 333 14 21 22 10 36 -35 43 -81
13 -101 36 -84 98 5 18 94 169 198 336 188 302 206 324 247 308 8 -3 83 -124
167 -269 84 -144 170 -292 191 -328 51 -88 58 -117 30 -136 -29 -21 -26 -42 7
-57 31 -13 617 -18 665 -4 17 5 27 14 27 26 0 16 -12 21 -67 30 -94 16 -164
52 -211 109 -39 46 -181 270 -454 711 -93 152 -138 234 -138 254 0 21 55 107
212 330 117 166 231 329 255 363 76 109 152 163 228 164 39 0 65 12 65 31 0
10 -4 20 -9 23 -5 4 -145 7 -311 7 -265 1 -304 -1 -318 -15 -24 -23 -4 -38 65
-47 131 -18 118 -63 -132 -440 -135 -205 -147 -220 -173 -217 -32 4 -55 36
-188 263 -129 221 -176 314 -172 343 3 30 33 48 91 57 28 4 37 11 37 25 0 10
-5 22 -10 25 -11 7 -515 12 -687 7z"/>
<path d="M6246 1903 c-3 -10 -17 -92 -31 -183 -31 -206 -31 -208 -53 -213 -9
-3 17 -5 58 -5 63 0 71 1 46 10 -26 9 -28 14 -22 47 3 20 8 62 12 94 7 56 7
57 26 41 10 -10 40 -57 66 -106 26 -48 52 -88 59 -88 7 0 35 47 63 105 27 58
54 105 60 105 6 0 14 -10 19 -23 10 -25 26 -154 22 -174 -1 -10 19 -13 76 -12
65 1 73 2 46 10 -36 11 -32 -3 -68 227 -24 162 -29 182 -44 182 -4 0 -38 -63
-76 -140 -38 -77 -72 -140 -76 -140 -14 0 -36 36 -94 153 -61 122 -79 143 -89
110z"/>
<path d="M7375 1902 c-113 -54 -157 -184 -100 -298 40 -80 101 -114 205 -114
82 0 154 39 195 105 26 42 30 58 30 119 0 85 -20 126 -83 170 -36 26 -52 30
-124 33 -66 3 -91 0 -123 -15z m155 -30 c54 -29 84 -92 84 -177 1 -119 -50
-184 -134 -172 -55 7 -90 35 -116 92 -28 58 -32 147 -10 199 30 71 104 96 176
58z"/>
<path d="M8400 1741 c0 -186 -6 -226 -37 -234 -10 -3 20 -5 67 -5 47 0 76 2
65 5 -37 9 -45 32 -45 140 0 72 4 103 12 103 6 0 70 -58 143 -130 72 -71 136
-130 142 -130 16 0 23 76 23 247 0 150 1 154 23 163 16 6 -1 9 -58 8 -48 0
-70 -3 -55 -7 31 -9 37 -34 39 -159 1 -92 1 -93 -21 -87 -13 3 -79 64 -148
136 -69 71 -131 129 -137 129 -10 0 -13 -43 -13 -179z"/>
<path d="M9744 1895 c-76 -38 -108 -89 -112 -179 -3 -60 0 -78 21 -116 13 -25
43 -58 66 -75 53 -37 157 -47 225 -21 101 39 160 148 138 255 -22 105 -86 153
-212 159 -65 3 -82 0 -126 -23z m197 -52 c46 -50 64 -122 50 -200 -12 -63 -25
-85 -64 -108 -62 -37 -148 0 -187 80 -18 38 -21 59 -18 126 3 79 4 81 42 116
36 33 42 35 89 30 43 -4 56 -10 88 -44z"/>
<path d="M6699 1884 c17 -14 54 -64 83 -112 45 -75 53 -95 56 -149 5 -76 -2
-110 -26 -116 -9 -3 26 -5 78 -5 52 0 86 3 75 5 -38 10 -45 24 -45 92 0 48 7
80 24 116 38 81 94 163 124 179 26 15 25 15 -42 16 -59 0 -67 -2 -56 -15 10
-11 5 -28 -26 -85 -21 -38 -43 -70 -49 -70 -6 0 -31 34 -55 76 -35 62 -41 77
-29 85 9 5 -14 9 -64 9 l-79 0 31 -26z"/>
<path d="M7735 1901 c15 -6 30 -40 59 -127 67 -207 97 -284 111 -284 7 0 36
57 65 131 44 108 55 128 66 117 7 -7 35 -65 62 -128 29 -69 55 -115 63 -115 9
0 36 66 80 195 54 160 70 197 90 207 21 11 16 13 -45 13 -60 0 -67 -2 -52 -13
18 -13 17 -17 -8 -101 -41 -134 -44 -140 -60 -127 -8 7 -35 63 -61 126 -26 63
-53 115 -60 115 -7 0 -32 -51 -55 -113 -23 -63 -46 -120 -51 -128 -15 -23 -34
11 -65 122 -24 86 -26 102 -13 110 9 5 -14 9 -66 8 -51 0 -73 -3 -60 -8z"/>
<path d="M9009 1897 c20 -10 36 -47 90 -207 47 -137 70 -195 81 -195 10 0 31
40 62 115 26 63 48 120 51 125 9 23 37 -21 82 -130 26 -63 53 -115 60 -115 8
0 40 82 81 201 53 156 73 203 89 209 13 6 -4 9 -50 8 -38 0 -62 -2 -52 -5 24
-6 22 -30 -14 -148 -38 -125 -40 -124 -108 38 -27 63 -54 112 -61 112 -14 0
-22 -18 -81 -173 -28 -76 -32 -82 -44 -64 -8 10 -27 63 -44 118 -27 90 -28
100 -13 112 13 10 1 12 -69 12 -73 0 -81 -2 -60 -13z"/>
<path d="M10160 1898 c25 -14 25 -14 28 -173 3 -182 0 -202 -31 -215 -15 -6 7
-9 73 -9 75 1 89 3 68 11 -26 9 -28 13 -28 68 0 113 20 117 90 21 75 -103 69
-101 281 -102 100 0 185 4 189 8 13 14 22 71 12 77 -5 3 -14 -6 -20 -19 -13
-28 -48 -40 -96 -31 -29 6 -34 11 -40 44 -3 20 -6 94 -6 163 0 126 6 150 40
162 8 3 -28 5 -80 5 -76 0 -89 -2 -67 -10 l27 -10 -2 -186 -3 -187 -33 2 c-39
1 -63 21 -134 111 l-51 63 26 27 c53 56 58 119 11 163 -24 22 -35 24 -152 27
-110 2 -124 1 -102 -10z m180 -38 c43 -43 37 -137 -11 -154 -51 -18 -59 -5
-59 89 0 84 0 85 25 85 14 0 34 -9 45 -20z"/>
<path d="M10903 1899 l27 -11 0 -184 c0 -182 0 -185 -22 -193 -30 -11 197 -26
249 -16 21 3 57 18 80 31 130 75 131 282 3 354 -42 23 -55 25 -205 27 -121 2
-153 0 -132 -8z m243 -38 c74 -34 112 -110 100 -206 -10 -85 -68 -135 -156
-135 -75 0 -75 0 -79 175 -2 85 -1 162 3 170 8 21 81 19 132 -4z"/>
<path d="M8650 1073 c-31 -11 -66 -37 -112 -84 -36 -38 -72 -69 -80 -69 -7 0
-38 9 -68 21 -70 27 -190 35 -272 19 -65 -12 -209 -65 -288 -105 -54 -27 -242
-75 -296 -75 -22 0 -54 9 -71 20 -27 16 -33 26 -33 55 0 46 34 70 90 62 21 -3
41 -3 44 0 10 10 -17 51 -41 62 -80 36 -183 -29 -183 -117 0 -94 90 -162 212
-162 85 0 146 18 291 84 179 82 287 116 367 116 134 0 218 -61 175 -126 -13
-20 -19 -23 -31 -13 -8 6 -14 20 -14 30 0 23 -25 25 -34 3 -21 -54 9 -119 60
-133 44 -12 60 -7 105 36 51 48 72 36 102 -58 6 -18 -18 -59 -34 -59 -5 0 -9
14 -9 30 0 23 -5 30 -19 30 -27 0 -43 -24 -48 -73 -7 -63 24 -98 94 -104 67
-7 104 -45 139 -139 13 -38 29 -73 34 -78 16 -16 36 13 54 77 11 36 30 72 51
96 30 33 42 39 87 43 40 4 57 11 75 32 33 39 32 98 -3 133 -25 25 -28 25 -39
9 -7 -9 -10 -27 -7 -39 5 -22 5 -22 -16 -3 -26 23 -28 46 -6 92 21 44 48 44
91 2 35 -34 80 -41 120 -19 28 14 56 76 47 104 -14 47 -44 59 -44 17 0 -10 -5
-22 -10 -25 -17 -11 -40 15 -40 45 0 53 73 89 180 89 75 1 214 -44 395 -126
129 -59 181 -73 267 -73 149 0 248 114 193 221 -36 68 -142 93 -191 44 -36
-36 -27 -51 29 -47 36 3 50 -1 66 -17 39 -39 20 -94 -39 -112 -60 -18 -219 18
-385 88 -195 83 -251 96 -365 90 -64 -3 -115 -12 -158 -28 l-62 -23 -64 67
c-35 37 -84 76 -108 87 -52 24 -134 25 -198 3z m166 -82 c44 -20 114 -95 114
-122 0 -9 -8 -27 -18 -38 l-17 -22 -59 27 c-48 22 -68 26 -112 21 -30 -3 -72
-16 -94 -28 -38 -22 -40 -22 -60 -4 -29 26 -25 56 16 103 67 79 147 101 230
63z m-2 -241 c27 -26 28 -31 17 -58 -12 -28 -16 -30 -84 -34 -80 -5 -93 0
-102 43 -18 79 104 115 169 49z m-23 -173 c33 -25 30 -58 -7 -104 -19 -24 -41
-43 -47 -43 -7 1 -27 21 -45 45 -35 48 -36 86 -3 105 23 13 83 12 102 -3z"/>
<path d="M6949 906 c-3 -3 -696 -8 -1540 -11 -844 -2 -1547 -9 -1564 -14 l-30
-8 35 -7 c96 -17 745 -26 1997 -26 1268 0 1383 1 1398 16 15 16 15 18 0 33
-12 13 -43 17 -153 19 -75 2 -140 1 -143 -2z"/>
<path d="M10260 904 c-36 -15 -41 -26 -24 -45 17 -18 65 -19 1403 -19 1266 0
1890 9 1996 27 l40 6 -35 9 c-19 4 -674 10 -1455 12 -781 3 -1530 7 -1665 10
-135 3 -252 3 -260 0z"/>
</g>
</svg>
