<svg viewBox="0 0 1707.8 101.6" xmlns="http://www.w3.org/2000/svg" width="100%">
<g transform="translate(-16.533564,101.947809) scale(0.100000,-0.100000)" fill="#f5f5f5" stroke="none">
<path d="M8431 998 c-5 -13 -14 -73 -20 -135 -7 -71 -20 -141 -37 -192 -27
-78 -66 -142 -79 -130 -3 4 1 47 9 95 21 116 22 274 2 274 -15 0 -36 -49 -36
-82 0 -72 -101 -278 -167 -343 -18 -18 -33 -37 -33 -44 0 -7 21 -31 46 -54 88
-80 123 -198 69 -233 -34 -22 -89 -7 -130 36 -30 31 -36 65 -23 135 3 17 -3
20 -46 22 -60 3 -78 14 -169 109 -39 41 -92 88 -117 104 -64 41 -192 86 -286
100 -94 14 -415 5 -426 -13 -3 -6 2 -28 13 -48 20 -40 24 -65 11 -73 -4 -2
-32 2 -62 11 -43 11 -88 13 -205 8 -82 -3 -172 -7 -200 -8 l-50 -2 3 -41 c5
-65 -7 -69 -148 -50 -95 13 -137 14 -203 6 -90 -11 -220 -44 -252 -64 -61 -37
-357 -144 -435 -157 -103 -17 -202 -13 -252 9 -148 65 -121 232 37 232 28 0
35 4 35 19 0 31 -38 51 -99 51 -74 0 -131 -34 -160 -95 -59 -126 15 -264 168
-309 142 -42 337 -7 599 106 91 40 104 35 113 -47 4 -32 15 -69 26 -83 56 -77
187 -82 237 -10 9 13 16 43 16 71 0 40 -5 53 -29 78 -20 20 -39 29 -62 29
l-32 0 25 20 c37 28 99 39 224 40 180 0 271 -23 574 -145 232 -94 356 -117
502 -95 132 20 182 55 207 145 24 86 3 185 -51 243 -48 51 25 52 124 1 20 -10
56 -42 80 -70 96 -115 115 -133 163 -154 46 -21 51 -27 63 -70 25 -94 109
-143 225 -131 50 5 59 3 69 -14 24 -39 46 -25 53 34 12 94 96 146 149 93 31
-31 33 -56 7 -88 -18 -21 -22 -23 -42 -11 -18 12 -23 12 -30 0 -12 -19 -11
-31 5 -54 13 -17 28 -19 155 -20 136 -1 141 0 163 23 18 19 20 27 11 41 -6 9
-21 16 -34 15 -42 -3 -66 6 -72 28 -9 33 8 65 43 79 61 25 124 -29 139 -119 7
-41 23 -49 48 -24 15 15 34 18 104 18 76 0 90 3 126 27 41 27 83 95 83 134 0
14 13 24 49 37 36 13 61 31 93 69 103 123 150 163 216 182 80 25 94 14 52 -39
-42 -53 -62 -124 -50 -183 13 -68 28 -103 57 -134 30 -32 59 -42 163 -59 146
-23 254 0 552 117 255 100 308 114 459 121 152 7 224 -1 270 -29 29 -19 31
-22 14 -25 -70 -13 -97 -43 -97 -108 0 -54 14 -81 55 -105 99 -61 227 20 227
143 0 35 4 47 18 51 11 4 72 -15 145 -44 190 -77 308 -103 432 -98 75 4 113
11 153 28 61 27 122 90 141 148 26 79 -7 171 -78 219 -48 33 -139 32 -177 0
-35 -31 -26 -43 37 -49 63 -6 101 -34 113 -82 20 -76 -51 -151 -157 -165 -81
-11 -210 6 -312 41 -114 39 -275 103 -327 129 -57 29 -209 60 -303 62 -44 1
-118 -4 -165 -11 -78 -11 -86 -11 -103 6 -14 14 -16 24 -8 44 5 13 6 30 2 36
-7 11 -93 16 -306 17 -93 0 -133 -4 -177 -19 -32 -11 -61 -17 -65 -13 -4 4 6
31 22 61 44 82 43 83 -148 91 -190 8 -261 2 -372 -32 -124 -39 -186 -76 -277
-170 -94 -95 -123 -114 -182 -116 l-41 -2 3 -61 c3 -53 1 -64 -22 -92 -48 -56
-132 -66 -155 -16 -23 51 12 136 88 209 28 27 51 53 51 57 0 5 -9 16 -21 26
-62 51 -150 218 -174 330 -22 99 -26 112 -40 112 -22 0 -25 -134 -4 -249 10
-57 16 -108 13 -113 -10 -16 -35 14 -60 70 -34 78 -42 113 -59 257 -16 135
-27 163 -50 132 -32 -43 -26 -297 11 -468 15 -72 15 -78 -1 -113 -24 -51 -54
-68 -116 -68 -58 1 -88 21 -110 74 -11 26 -10 45 5 117 32 164 39 416 12 459
-11 19 -26 14 -35 -10z m-1122 -432 c10 -12 8 -17 -8 -25 -11 -6 -34 -31 -51
-56 -17 -25 -38 -45 -46 -45 -16 0 -51 51 -61 89 -9 35 19 51 93 51 41 0 65
-5 73 -14z m2662 4 c10 -6 19 -19 19 -28 0 -23 -51 -102 -66 -102 -6 0 -24 16
-38 35 -15 20 -39 47 -54 60 -23 22 -25 27 -12 35 20 13 126 13 151 0z m-1677
-159 c-9 -12 -24 15 -23 42 l0 32 13 -35 c7 -19 11 -37 10 -39z m562 13 c-12
-31 -22 -12 -12 22 9 28 12 31 14 14 2 -12 1 -28 -2 -36z m-2060 22 c3 -8 0
-32 -6 -55 -10 -37 -14 -41 -41 -41 -20 0 -40 10 -60 29 -33 34 -35 43 -13 65
20 21 112 22 120 2z m664 -1 c64 -33 95 -116 66 -177 -33 -70 -100 -98 -233
-98 -119 0 -243 31 -243 60 0 6 14 29 30 52 17 22 30 47 30 54 0 31 25 23 74
-24 82 -78 153 -100 216 -67 40 21 60 53 60 95 0 42 -36 84 -67 78 -15 -3 -17
-11 -15 -46 3 -38 2 -42 -19 -42 -54 0 -79 70 -39 110 24 24 97 27 140 5z
m2343 3 c28 -22 32 -73 8 -97 -29 -29 -57 -27 -63 3 -3 14 -1 29 5 35 13 13 0
31 -24 31 -48 0 -75 -74 -48 -133 13 -28 67 -57 107 -57 52 0 128 45 172 102
23 29 46 54 51 56 4 2 11 -9 14 -25 11 -48 26 -81 46 -99 27 -25 24 -38 -15
-56 -92 -44 -306 -51 -381 -12 -105 55 -112 183 -13 244 38 23 115 27 141 8z
m651 6 c10 -4 16 -18 16 -35 0 -32 -27 -55 -77 -65 -29 -6 -31 -4 -46 39 -11
33 -12 48 -4 56 12 12 85 15 111 5z m-3473 -64 c10 -6 19 -20 19 -30 0 -26
-20 -26 -27 0 -8 29 -30 24 -48 -10 -9 -16 -20 -30 -25 -30 -13 0 -40 30 -40
45 0 31 79 47 121 25z m3274 -2 c30 -14 32 -29 5 -53 -16 -14 -22 -15 -34 -5
-9 6 -18 20 -21 31 -8 25 -32 24 -40 -2 -7 -20 -26 -22 -32 -2 -12 35 68 56
122 31z m-4222 -179 c7 0 26 -2 42 -2 42 -3 49 -42 10 -57 -48 -18 -111 50
-77 84 4 4 8 1 10 -8 2 -9 9 -16 15 -17z m5092 -19 c-17 -52 -105 -56 -105 -5
0 24 4 26 33 25 51 -3 57 -1 57 18 1 16 1 16 11 -1 6 -9 7 -26 4 -37z"/>
<path d="M2055 348 c-1535 -6 -1872 -12 -1889 -29 -7 -7 132 -15 519 -29 138
-5 1136 -10 2220 -10 2043 1 2005 0 2005 38 0 6 -10 18 -22 26 -25 18 164 18
-2833 4z"/>
<path d="M12223 343 c-29 -20 -29 -29 0 -48 21 -13 254 -15 2123 -15 1154 0
2214 5 2354 10 431 16 551 23 543 31 -19 19 -904 29 -2888 33 -1890 4 -2112 3
-2132 -11z"/>
</g>
</svg>
