<svg viewBox="0 0 1000 40" xmlns="http://www.w3.org/2000/svg" width="100%">
<g fill="none" stroke="#f5f5f5" stroke-width="1.4" stroke-linecap="round">
  <line x1="50" y1="20.0" x2="410.0" y2="20.0"/>
  <line x1="590.0" y1="20.0" x2="950" y2="20.0"/>
  <!-- left curl: a scroll spiral -->
  <path d="M 410.0 20.0 c 18 0 26 -11 14 -18 c -8 -5 -16 2 -12 9 c 2 4 8 4 9 0"/>
  <!-- right curl mirror -->
  <path d="M 590.0 20.0 c -18 0 -26 -11 -14 -18 c 8 -5 16 2 12 9 c -2 4 -8 4 -9 0"/>
</g>
<g fill="#f5f5f5" stroke="none">
  <!-- center vertical leaf/diamond -->
  <path d="M 500.0 9.0 C 506.0 16.0, 506.0 24.0, 500.0 31.0 C 494.0 24.0, 494.0 16.0, 500.0 9.0 Z"/>
</g>
</svg>
